<?xml version="1.0" encoding="UTF-8"?>
<svg id="Layer_1" xmlns="http://www.w3.org/2000/svg" version="1.1" viewBox="0 0 1080 1080">
  <!-- Generator: Adobe Illustrator 30.2.1, SVG Export Plug-In . SVG Version: 2.1.1 Build 1)  -->
  <defs>
    <style>
      .st0 {
        fill: #fff;
      }

      .st1 {
        fill: none;
      }

      .st2 {
        fill: #d6bb86;
      }

      .st3 {
        fill: #5c5c5c;
      }

      .st4 {
        fill: #070707;
      }
    </style>
  </defs>
  <path class="st3" d="M532.01,948.95c-23.49,14.75-38.14,35.07-42.4,60.71l57.7,34.34,399.77-253.01.07-461.93-284.12-175.62-127.63-78.26-104.05,64.94c-8.95,33.03,5.08,64.86,33.32,84.22l340.71,208.28c23.96,14.64,45.04,39.16,45.1,68.53l.41,209.98c.05,27.56-17.49,48.61-39.68,62.55l-279.19,175.26ZM415.6,964.9l51.8-33.23,284.26-179.01c27.31-17.2,47.83-42.28,47.98-76.25l.64-141.3c.13-27.53-14.65-54.42-38.57-69.13l-267.1-164.21c-30.57-18.41-59.95-35.31-89.07-55.44-22.46-15.52-31.02-41.19-35.77-67.4l-80.79,50.53c.97,36.82,21.54,63.82,51.92,82.39l325.76,199.13c22.27,13.61,40.08,35.64,41.56,62.1,1.36,24.33,1.57,47.78-.26,72.18-1.56,20.79-16.04,40.44-33.78,51.56l-292.25,183.02c-16.8,10.52-28.32,24.73-35.48,43.32l69.17,41.74ZM135,793.46l91.73,55.85c10.41,6.38,21.36,10.7,33.2,12.86,28.4,7.03,55.21,1.28,79.9-14.19l272.55-170.68c27.33-17.12,39.87-46.12,36.7-78.53-2.42-24.7-16.84-48.99-39.2-62.7l-189.53-116.22-132.64-81.42c-35.8-21.97-49.38-27.88-62.92-69.28l-78.29,49.03c2.63,27.33,18.54,49.33,42.12,63.73l354.6,216.56c5.76,3.52,10.15,5.6,12.95,9.96l-266.99,166.67c-1.22.76-3.35,1.26-4.26,1.32-.6.04-1.79-3.05-1.79-3.84l.13-84.74c25.23,5.72,48.38,2.65,69.73-10.4l110.46-69.29-328.3-199.87-.13,385.16Z"/>
  <path class="st2" d="M521.16,931.66l279.19-175.26c22.2-13.93,39.74-34.99,39.68-62.55l-.41-209.98c-.06-29.37-21.14-53.88-45.1-68.53l-340.71-208.28c-28.23-19.36-42.27-51.19-33.32-84.22l104.05-64.94,127.63,78.26,284.12,175.62-.07,461.93-399.77,253.01-57.7-34.34c4.26-25.63,18.91-45.96,42.4-60.71Z"/>
  <path class="st2" d="M124.15,776.17l.13-385.16,328.3,199.87-110.46,69.29c-21.35,13.05-44.51,16.12-69.73,10.4l-.13,84.74c0,.79,1.19,3.88,1.79,3.84.92-.06,3.04-.56,4.26-1.32l266.99-166.67c-2.81-4.36-7.2-6.44-12.95-9.96l-354.6-216.56c-23.58-14.4-39.49-36.4-42.12-63.73l78.29-49.03c13.55,41.39,27.13,47.31,62.92,69.28l132.64,81.42,189.53,116.22c22.37,13.71,36.78,38,39.2,62.7,3.17,32.4-9.37,61.41-36.7,78.53l-272.55,170.68c-24.69,15.46-51.5,21.21-79.9,14.19-11.84-2.16-22.78-6.49-33.2-12.86l-91.73-55.85Z"/>
  <path class="st2" d="M404.75,947.62l-69.17-41.74c7.17-18.59,18.69-32.8,35.48-43.32l292.25-183.02c17.74-11.11,32.23-30.77,33.78-51.56,1.83-24.4,1.62-47.85.26-72.18-1.48-26.46-19.29-48.48-41.56-62.1l-325.76-199.13c-30.37-18.57-50.95-45.57-51.92-82.39l80.79-50.53c4.75,26.21,13.32,51.88,35.77,67.4,29.12,20.13,58.5,37.03,89.07,55.44l267.1,164.21c23.92,14.71,38.7,41.6,38.57,69.13l-.64,141.3c-.15,33.97-20.67,59.05-47.98,76.25l-284.26,179.01-51.8,33.23Z"/>
  <line x1="452.58" y1="590.88" x2="463.43" y2="608.17"/>
  <line x1="124.15" y1="776.17" x2="135" y2="793.46"/>
  <line class="st1" x1="335.58" y1="905.87" x2="346.44" y2="923.16"/>
  <line class="st0" x1="404.75" y1="947.62" x2="415.6" y2="964.9"/>
  <line class="st0" x1="335.58" y1="905.87" x2="346.44" y2="923.16"/>
  <line x1="478.76" y1="992.37" x2="489.61" y2="1009.66"/>
  <line x1="335.58" y1="905.87" x2="346.44" y2="923.16"/>
  <line class="st0" x1="536.46" y1="1026.71" x2="547.31" y2="1044"/>
  <line class="st0" x1="272.39" y1="670.57" x2="283.24" y2="687.85"/>
  <line class="st4" x1="213.92" y1="251.87" x2="224.77" y2="269.16"/>
  <line x1="358.91" y1="161.65" x2="369.76" y2="178.93"/>
  <line x1="936.3" y1="311.78" x2="947.15" y2="329.06"/>
  <line class="st0" x1="936.22" y1="773.71" x2="947.08" y2="790.99"/>
</svg>