<svg xmlns="http://www.w3.org/2000/svg" xmlns:xlink="http://www.w3.org/1999/xlink" width="500" zoomAndPan="magnify" viewBox="0 0 375 374.999991" height="500" preserveAspectRatio="xMidYMid meet" version="1.0"><defs><g/><clipPath id="0a0f8bbbb3"><rect x="0" width="374" y="0" height="68"/></clipPath></defs><g transform="matrix(1, 0, 0, 1, -0.000000000000000111, 153)"><g clip-path="url(#0a0f8bbbb3)"><g fill="#ffffff" fill-opacity="1"><g transform="translate(1.662071, 53.306222)"><g><path d="M 3.507812 -39.246094 L 14.402344 -39.246094 L 14.402344 1.023438 L 3.507812 1.023438 Z M 5.554688 -37.199219 L 5.554688 -1.023438 L 12.355469 -1.023438 L 12.355469 -37.199219 Z M 5.554688 -37.199219 "/></g></g></g><g fill="#ffffff" fill-opacity="1"><g transform="translate(19.569672, 53.306222)"><g><path d="M 21.789062 -30.835938 C 25.707031 -30.835938 28.882812 -29.648438 31.320312 -27.269531 C 33.765625 -24.886719 34.988281 -21.402344 34.988281 -16.816406 L 34.988281 1.023438 L 24.421875 1.023438 L 24.421875 -15.507812 C 24.421875 -17.578125 24 -19.089844 23.152344 -20.042969 C 22.335938 -20.960938 21.117188 -21.417969 19.492188 -21.417969 C 17.636719 -21.417969 16.171875 -20.859375 15.101562 -19.742188 C 14.015625 -18.609375 13.472656 -16.871094 13.472656 -14.523438 L 13.472656 1.023438 L 2.90625 1.023438 L 2.90625 -30.402344 L 13.089844 -30.402344 L 13.089844 -25.9375 L 12.066406 -25.9375 L 11.3125 -26.625 C 12.542969 -27.980469 14.070312 -29.023438 15.890625 -29.753906 C 17.6875 -30.476562 19.652344 -30.835938 21.789062 -30.835938 Z M 21.789062 -28.789062 C 19.917969 -28.789062 18.207031 -28.476562 16.652344 -27.855469 C 15.125 -27.238281 13.847656 -26.371094 12.824219 -25.246094 L 11.042969 -23.292969 L 11.042969 -29.378906 L 12.066406 -29.378906 L 12.066406 -28.351562 L 3.929688 -28.351562 L 3.929688 -29.378906 L 4.957031 -29.378906 L 4.957031 0 L 3.929688 0 L 3.929688 -1.023438 L 12.449219 -1.023438 L 12.449219 0 L 11.425781 0 L 11.425781 -14.523438 C 11.425781 -17.421875 12.15625 -19.632812 13.621094 -21.15625 C 15.097656 -22.695312 17.054688 -23.464844 19.492188 -23.464844 C 21.730469 -23.464844 23.460938 -22.777344 24.683594 -21.402344 C 25.875 -20.0625 26.46875 -18.097656 26.46875 -15.507812 L 26.46875 0 L 25.445312 0 L 25.445312 -1.023438 L 33.964844 -1.023438 L 33.964844 0 L 32.941406 0 L 32.941406 -16.816406 C 32.941406 -20.824219 31.921875 -23.820312 29.890625 -25.804688 C 27.851562 -27.796875 25.148438 -28.789062 21.789062 -28.789062 Z M 21.789062 -28.789062 "/></g></g></g><g fill="#ffffff" fill-opacity="1"><g transform="translate(57.295753, 53.306222)"><g><path d="M 34.878906 -40.515625 L 34.878906 1.023438 L 24.695312 1.023438 L 24.695312 -3.386719 L 25.71875 -3.386719 L 26.507812 -2.730469 C 24.191406 0.0625 20.871094 1.460938 16.546875 1.460938 C 13.601562 1.460938 10.933594 0.800781 8.542969 -0.523438 C 6.132812 -1.855469 4.242188 -3.753906 2.871094 -6.21875 C 1.511719 -8.667969 0.832031 -11.492188 0.832031 -14.6875 C 0.832031 -17.886719 1.511719 -20.710938 2.871094 -23.15625 C 4.242188 -25.621094 6.132812 -27.519531 8.542969 -28.851562 C 10.933594 -30.175781 13.601562 -30.835938 16.546875 -30.835938 C 20.601562 -30.835938 23.785156 -29.539062 26.101562 -26.945312 L 25.335938 -26.265625 L 24.3125 -26.265625 L 24.3125 -41.539062 L 34.878906 -41.539062 Z M 32.832031 -40.515625 L 33.855469 -40.515625 L 33.855469 -39.492188 L 25.335938 -39.492188 L 25.335938 -40.515625 L 26.359375 -40.515625 L 26.359375 -23.578125 L 24.574219 -25.582031 C 22.664062 -27.722656 19.988281 -28.789062 16.546875 -28.789062 C 13.953125 -28.789062 11.617188 -28.214844 9.53125 -27.0625 C 7.464844 -25.917969 5.839844 -24.285156 4.664062 -22.164062 C 3.472656 -20.023438 2.878906 -17.53125 2.878906 -14.6875 C 2.878906 -11.84375 3.472656 -9.351562 4.664062 -7.214844 C 5.839844 -5.089844 7.464844 -3.457031 9.53125 -2.316406 C 11.617188 -1.164062 13.953125 -0.585938 16.546875 -0.585938 C 20.230469 -0.585938 23.023438 -1.738281 24.929688 -4.039062 L 26.742188 -6.226562 L 26.742188 0 L 25.71875 0 L 25.71875 -1.023438 L 33.855469 -1.023438 L 33.855469 0 L 32.832031 0 Z M 18.019531 -7.578125 C 19.875 -7.578125 21.414062 -8.207031 22.632812 -9.472656 C 23.863281 -10.75 24.476562 -12.488281 24.476562 -14.6875 C 24.476562 -16.890625 23.863281 -18.625 22.632812 -19.902344 C 21.414062 -21.167969 19.875 -21.800781 18.019531 -21.800781 C 16.125 -21.800781 14.570312 -21.167969 13.351562 -19.902344 C 12.121094 -18.625 11.507812 -16.890625 11.507812 -14.6875 C 11.507812 -12.488281 12.121094 -10.75 13.351562 -9.472656 C 14.570312 -8.207031 16.125 -7.578125 18.019531 -7.578125 Z M 18.019531 -5.527344 C 15.546875 -5.527344 13.496094 -6.371094 11.875 -8.054688 C 10.265625 -9.726562 9.460938 -11.9375 9.460938 -14.6875 C 9.460938 -17.4375 10.265625 -19.652344 11.875 -21.324219 C 13.496094 -23.007812 15.546875 -23.847656 18.019531 -23.847656 C 20.457031 -23.847656 22.488281 -23.007812 24.109375 -21.324219 C 25.71875 -19.652344 26.523438 -17.4375 26.523438 -14.6875 C 26.523438 -11.9375 25.71875 -9.726562 24.109375 -8.054688 C 22.488281 -6.371094 20.457031 -5.527344 18.019531 -5.527344 Z M 18.019531 -5.527344 "/></g></g></g><g fill="#ffffff" fill-opacity="1"><g transform="translate(95.076428, 53.306222)"><g><path d="M 34.550781 -29.378906 L 34.550781 1.023438 L 24.421875 1.023438 L 24.421875 -3.496094 L 25.445312 -3.496094 L 26.210938 -2.816406 C 24.984375 -1.425781 23.515625 -0.367188 21.808594 0.367188 C 20.113281 1.097656 18.289062 1.460938 16.328125 1.460938 C 12.1875 1.460938 8.890625 0.253906 6.433594 -2.164062 C 3.972656 -4.585938 2.742188 -8.125 2.742188 -12.777344 L 2.742188 -30.402344 L 13.308594 -30.402344 L 13.308594 -14.035156 C 13.308594 -11.914062 13.726562 -10.359375 14.558594 -9.367188 C 15.347656 -8.429688 16.574219 -7.957031 18.238281 -7.957031 C 19.980469 -7.957031 21.367188 -8.515625 22.402344 -9.625 C 23.457031 -10.757812 23.984375 -12.5 23.984375 -14.851562 L 23.984375 -30.402344 L 34.550781 -30.402344 Z M 32.503906 -29.378906 L 33.527344 -29.378906 L 33.527344 -28.351562 L 25.007812 -28.351562 L 25.007812 -29.378906 L 26.03125 -29.378906 L 26.03125 -14.851562 C 26.03125 -11.960938 25.320312 -9.753906 23.902344 -8.230469 C 22.460938 -6.683594 20.574219 -5.910156 18.238281 -5.910156 C 15.933594 -5.910156 14.1875 -6.625 12.988281 -8.050781 C 11.839844 -9.425781 11.261719 -11.417969 11.261719 -14.035156 L 11.261719 -29.378906 L 12.285156 -29.378906 L 12.285156 -28.351562 L 3.769531 -28.351562 L 3.769531 -29.378906 L 4.792969 -29.378906 L 4.792969 -12.777344 C 4.792969 -8.695312 5.816406 -5.644531 7.871094 -3.625 C 9.929688 -1.597656 12.746094 -0.585938 16.328125 -0.585938 C 18.007812 -0.585938 19.5625 -0.894531 21 -1.515625 C 22.425781 -2.128906 23.652344 -3.011719 24.679688 -4.171875 L 26.46875 -6.195312 L 26.46875 0 L 25.445312 0 L 25.445312 -1.023438 L 33.527344 -1.023438 L 33.527344 0 L 32.503906 0 Z M 32.503906 -29.378906 "/></g></g></g><g fill="#ffffff" fill-opacity="1"><g transform="translate(132.584126, 53.306222)"><g><path d="M 13.816406 1.460938 C 11.289062 1.460938 8.820312 1.148438 6.40625 0.527344 C 3.964844 -0.101562 2.007812 -0.902344 0.53125 -1.875 L -0.207031 -2.359375 L 3.496094 -10.339844 L 4.484375 -9.707031 C 5.707031 -8.925781 7.203125 -8.285156 8.960938 -7.78125 C 10.726562 -7.28125 12.453125 -7.03125 14.140625 -7.03125 C 17.0625 -7.03125 18.523438 -7.582031 18.523438 -8.683594 C 18.523438 -8.855469 18.480469 -9 18.386719 -9.113281 C 18.257812 -9.269531 18.035156 -9.40625 17.71875 -9.523438 C 16.808594 -9.859375 15.375 -10.152344 13.414062 -10.394531 L 13.402344 -10.398438 L 13.386719 -10.398438 C 10.9375 -10.769531 8.90625 -11.199219 7.292969 -11.6875 C 5.554688 -12.214844 4.050781 -13.140625 2.78125 -14.472656 C 1.445312 -15.871094 0.777344 -17.820312 0.777344 -20.3125 C 0.777344 -22.394531 1.382812 -24.246094 2.59375 -25.867188 C 3.785156 -27.460938 5.5 -28.695312 7.738281 -29.566406 C 9.914062 -30.414062 12.46875 -30.835938 15.398438 -30.835938 C 17.546875 -30.835938 19.6875 -30.601562 21.816406 -30.132812 C 23.980469 -29.652344 25.785156 -28.984375 27.226562 -28.128906 L 28.023438 -27.652344 L 24.320312 -19.753906 L 23.359375 -20.292969 C 20.929688 -21.664062 18.277344 -22.347656 15.398438 -22.347656 C 13.757812 -22.347656 12.558594 -22.136719 11.804688 -21.714844 C 11.242188 -21.398438 10.960938 -21.042969 10.960938 -20.640625 C 10.960938 -20.417969 11.011719 -20.238281 11.117188 -20.105469 C 11.242188 -19.941406 11.460938 -19.804688 11.769531 -19.6875 C 12.683594 -19.347656 14.183594 -19.019531 16.261719 -18.703125 C 18.714844 -18.296875 20.726562 -17.855469 22.296875 -17.390625 C 24.003906 -16.882812 25.484375 -15.960938 26.738281 -14.625 C 28.050781 -13.226562 28.707031 -11.320312 28.707031 -8.902344 C 28.707031 -6.847656 28.089844 -5.019531 26.859375 -3.417969 C 25.648438 -1.84375 23.902344 -0.628906 21.628906 0.222656 C 19.417969 1.046875 16.8125 1.460938 13.816406 1.460938 Z M 13.816406 -0.585938 C 16.566406 -0.585938 18.933594 -0.957031 20.910156 -1.695312 C 22.820312 -2.410156 24.261719 -3.398438 25.234375 -4.664062 C 26.183594 -5.902344 26.660156 -7.3125 26.660156 -8.902344 C 26.660156 -10.777344 26.1875 -12.21875 25.246094 -13.222656 C 24.242188 -14.289062 23.066406 -15.023438 21.714844 -15.425781 C 20.226562 -15.871094 18.304688 -16.289062 15.953125 -16.679688 C 13.738281 -17.019531 12.105469 -17.382812 11.058594 -17.769531 C 10.382812 -18.019531 9.859375 -18.382812 9.496094 -18.855469 C 9.109375 -19.359375 8.914062 -19.953125 8.914062 -20.640625 C 8.914062 -21.839844 9.542969 -22.792969 10.804688 -23.5 C 11.867188 -24.097656 13.398438 -24.394531 15.398438 -24.394531 C 18.636719 -24.394531 21.625 -23.621094 24.363281 -22.078125 L 23.863281 -21.1875 L 22.933594 -21.621094 L 25.773438 -27.683594 L 26.703125 -27.246094 L 26.179688 -26.367188 C 24.925781 -27.113281 23.324219 -27.699219 21.375 -28.132812 C 19.390625 -28.570312 17.398438 -28.789062 15.398438 -28.789062 C 12.722656 -28.789062 10.417969 -28.414062 8.480469 -27.660156 C 6.605469 -26.929688 5.191406 -25.921875 4.234375 -24.640625 C 3.292969 -23.386719 2.824219 -21.941406 2.824219 -20.3125 C 2.824219 -18.367188 3.304688 -16.890625 4.261719 -15.886719 C 5.285156 -14.816406 6.492188 -14.070312 7.886719 -13.648438 C 9.40625 -13.1875 11.339844 -12.78125 13.695312 -12.425781 L 13.542969 -11.414062 L 13.667969 -12.429688 C 15.785156 -12.164062 17.371094 -11.835938 18.429688 -11.445312 C 19.09375 -11.199219 19.609375 -10.851562 19.972656 -10.410156 C 20.371094 -9.921875 20.570312 -9.34375 20.570312 -8.683594 C 20.570312 -7.367188 19.933594 -6.390625 18.652344 -5.757812 C 17.605469 -5.242188 16.105469 -4.984375 14.140625 -4.984375 C 12.261719 -4.984375 10.351562 -5.257812 8.402344 -5.8125 C 6.449219 -6.367188 4.773438 -7.09375 3.378906 -7.984375 L 3.929688 -8.847656 L 4.859375 -8.414062 L 2.019531 -2.300781 L 1.09375 -2.730469 L 1.65625 -3.585938 C 2.941406 -2.738281 4.699219 -2.027344 6.917969 -1.457031 C 9.164062 -0.875 11.460938 -0.585938 13.816406 -0.585938 Z M 13.816406 -0.585938 "/></g></g></g><g fill="#ffffff" fill-opacity="1"><g transform="translate(161.574796, 53.306222)"><g><path d="M 23.488281 -0.597656 C 22.542969 0.101562 21.394531 0.621094 20.046875 0.964844 C 18.742188 1.296875 17.375 1.460938 15.945312 1.460938 C 12.179688 1.460938 9.246094 0.476562 7.136719 -1.492188 C 5.007812 -3.476562 3.945312 -6.347656 3.945312 -10.101562 L 3.945312 -22.167969 L 4.96875 -22.167969 L 4.96875 -21.144531 L -0.585938 -21.144531 L -0.585938 -29.746094 L 4.96875 -29.746094 L 4.96875 -28.722656 L 3.945312 -28.722656 L 3.945312 -36.898438 L 14.511719 -36.898438 L 14.511719 -28.722656 L 13.488281 -28.722656 L 13.488281 -29.746094 L 21.828125 -29.746094 L 21.828125 -21.144531 L 13.488281 -21.144531 L 13.488281 -22.167969 L 14.511719 -22.167969 L 14.511719 -10.210938 C 14.511719 -9.246094 14.734375 -8.523438 15.1875 -8.046875 C 15.621094 -7.589844 16.273438 -7.359375 17.144531 -7.359375 C 18.261719 -7.359375 19.199219 -7.652344 19.960938 -8.238281 L 21.050781 -9.078125 L 24.113281 -1.058594 Z M 22.269531 -2.242188 L 22.878906 -1.417969 L 21.921875 -1.054688 L 19.628906 -7.0625 L 20.585938 -7.425781 L 21.210938 -6.613281 C 20.078125 -5.746094 18.726562 -5.308594 17.144531 -5.308594 C 15.6875 -5.308594 14.539062 -5.753906 13.699219 -6.640625 C 12.875 -7.511719 12.464844 -8.703125 12.464844 -10.210938 L 12.464844 -23.191406 L 20.804688 -23.191406 L 20.804688 -22.167969 L 19.78125 -22.167969 L 19.78125 -28.722656 L 20.804688 -28.722656 L 20.804688 -27.699219 L 12.464844 -27.699219 L 12.464844 -35.875 L 13.488281 -35.875 L 13.488281 -34.851562 L 4.96875 -34.851562 L 4.96875 -35.875 L 5.992188 -35.875 L 5.992188 -27.699219 L 0.4375 -27.699219 L 0.4375 -28.722656 L 1.460938 -28.722656 L 1.460938 -22.167969 L 0.4375 -22.167969 L 0.4375 -23.191406 L 5.992188 -23.191406 L 5.992188 -10.101562 C 5.992188 -6.941406 6.839844 -4.570312 8.535156 -2.988281 C 10.25 -1.386719 12.71875 -0.585938 15.945312 -0.585938 C 17.207031 -0.585938 18.40625 -0.730469 19.542969 -1.019531 C 20.632812 -1.296875 21.542969 -1.703125 22.269531 -2.242188 Z M 22.269531 -2.242188 "/></g></g></g><g fill="#ffffff" fill-opacity="1"><g transform="translate(185.324207, 53.306222)"><g><path d="M 11.234375 -26.097656 C 12.367188 -27.671875 13.886719 -28.863281 15.792969 -29.664062 C 17.648438 -30.445312 19.773438 -30.835938 22.167969 -30.835938 L 23.191406 -30.835938 L 23.191406 -20.84375 L 22.089844 -20.929688 C 21.171875 -21 20.558594 -21.035156 20.257812 -21.035156 C 18.097656 -21.035156 16.429688 -20.453125 15.242188 -19.285156 C 14.0625 -18.117188 13.472656 -16.3125 13.472656 -13.871094 L 13.472656 1.023438 L 2.90625 1.023438 L 2.90625 -30.402344 L 13.089844 -30.402344 L 13.089844 -25.5 L 12.066406 -25.5 Z M 11.042969 -22.320312 L 11.042969 -29.378906 L 12.066406 -29.378906 L 12.066406 -28.351562 L 3.929688 -28.351562 L 3.929688 -29.378906 L 4.957031 -29.378906 L 4.957031 0 L 3.929688 0 L 3.929688 -1.023438 L 12.449219 -1.023438 L 12.449219 0 L 11.425781 0 L 11.425781 -13.871094 C 11.425781 -16.886719 12.21875 -19.175781 13.804688 -20.742188 C 15.386719 -22.304688 17.539062 -23.085938 20.257812 -23.085938 C 20.613281 -23.085938 21.273438 -23.046875 22.246094 -22.972656 L 22.167969 -21.949219 L 21.144531 -21.949219 L 21.144531 -29.8125 L 22.167969 -29.8125 L 22.167969 -28.789062 C 20.050781 -28.789062 18.191406 -28.453125 16.585938 -27.777344 C 15.035156 -27.125 13.804688 -26.167969 12.898438 -24.902344 Z M 11.042969 -22.320312 "/></g></g></g><g fill="#ffffff" fill-opacity="1"><g transform="translate(208.855236, 53.306222)"><g><path d="M 3.929688 -30.402344 L 13.472656 -30.402344 L 13.472656 1.023438 L 2.90625 1.023438 L 2.90625 -30.402344 Z M 3.929688 -28.351562 L 3.929688 -29.378906 L 4.957031 -29.378906 L 4.957031 0 L 3.929688 0 L 3.929688 -1.023438 L 12.449219 -1.023438 L 12.449219 0 L 11.425781 0 L 11.425781 -29.378906 L 12.449219 -29.378906 L 12.449219 -28.351562 Z M 8.191406 -32.394531 C 6.558594 -32.394531 5.210938 -32.933594 4.15625 -34.011719 C 3.105469 -35.085938 2.578125 -36.433594 2.578125 -38.058594 C 2.578125 -39.648438 3.105469 -40.980469 4.15625 -42.050781 C 5.210938 -43.128906 6.558594 -43.667969 8.191406 -43.667969 C 9.824219 -43.667969 11.167969 -43.128906 12.226562 -42.050781 C 13.277344 -40.980469 13.800781 -39.648438 13.800781 -38.058594 C 13.800781 -36.433594 13.277344 -35.085938 12.226562 -34.011719 C 11.167969 -32.933594 9.824219 -32.394531 8.191406 -32.394531 Z M 8.191406 -34.441406 C 9.25 -34.441406 10.109375 -34.777344 10.761719 -35.445312 C 11.421875 -36.121094 11.753906 -36.992188 11.753906 -38.058594 C 11.753906 -39.089844 11.421875 -39.945312 10.761719 -40.621094 C 10.109375 -41.289062 9.25 -41.621094 8.191406 -41.621094 C 7.128906 -41.621094 6.273438 -41.289062 5.617188 -40.621094 C 4.957031 -39.945312 4.628906 -39.089844 4.628906 -38.058594 C 4.628906 -36.992188 4.957031 -36.121094 5.617188 -35.445312 C 6.273438 -34.777344 7.128906 -34.441406 8.191406 -34.441406 Z M 8.191406 -34.441406 "/></g></g></g><g fill="#ffffff" fill-opacity="1"><g transform="translate(225.302413, 53.306222)"><g><path d="M 22.824219 1.679688 C 18.757812 1.679688 15.074219 0.792969 11.773438 -0.980469 C 8.460938 -2.765625 5.851562 -5.238281 3.953125 -8.402344 C 2.054688 -11.566406 1.105469 -15.136719 1.105469 -19.113281 C 1.105469 -23.085938 2.054688 -26.65625 3.953125 -29.820312 C 5.851562 -32.988281 8.460938 -35.460938 11.773438 -37.242188 C 15.074219 -39.015625 18.777344 -39.902344 22.878906 -39.902344 C 26.335938 -39.902344 29.464844 -39.292969 32.269531 -38.070312 C 35.09375 -36.839844 37.46875 -35.070312 39.390625 -32.761719 L 40.015625 -32.015625 L 32.84375 -25.394531 L 32.152344 -26.195312 C 29.773438 -28.945312 26.828125 -30.320312 23.316406 -30.320312 C 21.128906 -30.320312 19.183594 -29.84375 17.480469 -28.894531 C 15.792969 -27.949219 14.476562 -26.632812 13.535156 -24.945312 C 12.582031 -23.246094 12.109375 -21.300781 12.109375 -19.113281 C 12.109375 -16.921875 12.582031 -14.976562 13.535156 -13.277344 C 14.476562 -11.589844 15.792969 -10.273438 17.480469 -9.332031 C 19.183594 -8.378906 21.128906 -7.902344 23.316406 -7.902344 C 26.824219 -7.902344 29.769531 -9.296875 32.148438 -12.078125 L 32.839844 -12.886719 L 40.007812 -6.269531 L 39.398438 -5.519531 C 37.472656 -3.171875 35.085938 -1.382812 32.242188 -0.152344 C 29.417969 1.070312 26.277344 1.679688 22.824219 1.679688 Z M 22.824219 -0.367188 C 25.996094 -0.367188 28.863281 -0.921875 31.429688 -2.03125 C 33.96875 -3.132812 36.097656 -4.726562 37.8125 -6.820312 L 38.605469 -6.171875 L 37.910156 -5.417969 L 32.230469 -10.660156 L 32.925781 -11.414062 L 33.703125 -10.746094 C 30.914062 -7.488281 27.453125 -5.855469 23.316406 -5.855469 C 20.773438 -5.855469 18.496094 -6.417969 16.484375 -7.542969 C 14.457031 -8.675781 12.878906 -10.253906 11.746094 -12.277344 C 10.621094 -14.289062 10.0625 -16.566406 10.0625 -19.113281 C 10.0625 -21.65625 10.621094 -23.933594 11.746094 -25.945312 C 12.878906 -27.96875 14.457031 -29.546875 16.484375 -30.679688 C 18.496094 -31.804688 20.773438 -32.367188 23.316406 -32.367188 C 27.449219 -32.367188 30.910156 -30.757812 33.699219 -27.535156 L 32.925781 -26.867188 L 32.230469 -27.617188 L 37.910156 -32.859375 L 38.605469 -32.105469 L 37.820312 -31.453125 C 36.101562 -33.511719 33.980469 -35.09375 31.453125 -36.191406 C 28.90625 -37.300781 26.050781 -37.855469 22.878906 -37.855469 C 19.121094 -37.855469 15.742188 -37.050781 12.742188 -35.4375 C 9.761719 -33.832031 7.414062 -31.609375 5.710938 -28.769531 C 4.003906 -25.925781 3.152344 -22.707031 3.152344 -19.113281 C 3.152344 -15.515625 4.003906 -12.296875 5.710938 -9.453125 C 7.414062 -6.613281 9.761719 -4.390625 12.742188 -2.785156 C 15.742188 -1.175781 19.101562 -0.367188 22.824219 -0.367188 Z M 22.824219 -0.367188 "/></g></g></g><g fill="#ffffff" fill-opacity="1"><g transform="translate(265.32154, 53.306222)"><g><path d="M 17.910156 1.460938 C 14.648438 1.460938 11.710938 0.773438 9.105469 -0.59375 C 6.480469 -1.976562 4.425781 -3.894531 2.945312 -6.351562 C 1.464844 -8.808594 0.722656 -11.585938 0.722656 -14.6875 C 0.722656 -17.789062 1.464844 -20.570312 2.945312 -23.027344 C 4.425781 -25.480469 6.480469 -27.402344 9.105469 -28.78125 C 11.710938 -30.152344 14.648438 -30.835938 17.910156 -30.835938 C 21.175781 -30.835938 24.101562 -30.152344 26.691406 -28.78125 C 29.296875 -27.398438 31.339844 -25.480469 32.820312 -23.027344 C 34.300781 -20.570312 35.042969 -17.789062 35.042969 -14.6875 C 35.042969 -11.585938 34.300781 -8.808594 32.820312 -6.351562 C 31.339844 -3.894531 29.296875 -1.976562 26.691406 -0.597656 C 24.101562 0.773438 21.175781 1.460938 17.910156 1.460938 Z M 17.910156 -0.585938 C 20.835938 -0.585938 23.441406 -1.195312 25.730469 -2.40625 C 28.003906 -3.609375 29.78125 -5.277344 31.066406 -7.410156 C 32.351562 -9.539062 32.996094 -11.964844 32.996094 -14.6875 C 32.996094 -17.410156 32.351562 -19.835938 31.066406 -21.96875 C 29.78125 -24.097656 28.003906 -25.765625 25.730469 -26.972656 C 23.441406 -28.183594 20.835938 -28.789062 17.910156 -28.789062 C 14.984375 -28.789062 12.367188 -28.183594 10.058594 -26.96875 C 7.769531 -25.765625 5.984375 -24.097656 4.699219 -21.96875 C 3.414062 -19.835938 2.769531 -17.410156 2.769531 -14.6875 C 2.769531 -11.964844 3.414062 -9.539062 4.699219 -7.410156 C 5.984375 -5.277344 7.769531 -3.613281 10.058594 -2.40625 C 12.367188 -1.195312 14.984375 -0.585938 17.910156 -0.585938 Z M 17.910156 -7.578125 C 19.800781 -7.578125 21.347656 -8.207031 22.546875 -9.46875 C 23.761719 -10.746094 24.367188 -12.484375 24.367188 -14.6875 C 24.367188 -16.890625 23.761719 -18.632812 22.546875 -19.90625 C 21.347656 -21.167969 19.800781 -21.800781 17.910156 -21.800781 C 16.015625 -21.800781 14.460938 -21.167969 13.242188 -19.902344 C 12.011719 -18.625 11.398438 -16.890625 11.398438 -14.6875 C 11.398438 -12.488281 12.011719 -10.75 13.242188 -9.472656 C 14.460938 -8.207031 16.015625 -7.578125 17.910156 -7.578125 Z M 17.910156 -5.527344 C 15.4375 -5.527344 13.386719 -6.371094 11.765625 -8.054688 C 10.15625 -9.726562 9.351562 -11.9375 9.351562 -14.6875 C 9.351562 -17.4375 10.15625 -19.652344 11.765625 -21.324219 C 13.386719 -23.007812 15.4375 -23.847656 17.910156 -23.847656 C 20.386719 -23.847656 22.425781 -23.003906 24.03125 -21.320312 C 25.621094 -19.648438 26.414062 -17.4375 26.414062 -14.6875 C 26.414062 -11.941406 25.621094 -9.730469 24.03125 -8.058594 C 22.425781 -6.371094 20.386719 -5.527344 17.910156 -5.527344 Z M 17.910156 -5.527344 "/></g></g></g><g fill="#ffffff" fill-opacity="1"><g transform="translate(301.082163, 53.306222)"><g><path d="M 34.878906 -40.515625 L 34.878906 1.023438 L 24.695312 1.023438 L 24.695312 -3.386719 L 25.71875 -3.386719 L 26.507812 -2.730469 C 24.191406 0.0625 20.871094 1.460938 16.546875 1.460938 C 13.601562 1.460938 10.933594 0.800781 8.542969 -0.523438 C 6.132812 -1.855469 4.242188 -3.753906 2.871094 -6.21875 C 1.511719 -8.667969 0.832031 -11.492188 0.832031 -14.6875 C 0.832031 -17.886719 1.511719 -20.710938 2.871094 -23.15625 C 4.242188 -25.621094 6.132812 -27.519531 8.542969 -28.851562 C 10.933594 -30.175781 13.601562 -30.835938 16.546875 -30.835938 C 20.601562 -30.835938 23.785156 -29.539062 26.101562 -26.945312 L 25.335938 -26.265625 L 24.3125 -26.265625 L 24.3125 -41.539062 L 34.878906 -41.539062 Z M 32.832031 -40.515625 L 33.855469 -40.515625 L 33.855469 -39.492188 L 25.335938 -39.492188 L 25.335938 -40.515625 L 26.359375 -40.515625 L 26.359375 -23.578125 L 24.574219 -25.582031 C 22.664062 -27.722656 19.988281 -28.789062 16.546875 -28.789062 C 13.953125 -28.789062 11.617188 -28.214844 9.53125 -27.0625 C 7.464844 -25.917969 5.839844 -24.285156 4.664062 -22.164062 C 3.472656 -20.023438 2.878906 -17.53125 2.878906 -14.6875 C 2.878906 -11.84375 3.472656 -9.351562 4.664062 -7.214844 C 5.839844 -5.089844 7.464844 -3.457031 9.53125 -2.316406 C 11.617188 -1.164062 13.953125 -0.585938 16.546875 -0.585938 C 20.230469 -0.585938 23.023438 -1.738281 24.929688 -4.039062 L 26.742188 -6.226562 L 26.742188 0 L 25.71875 0 L 25.71875 -1.023438 L 33.855469 -1.023438 L 33.855469 0 L 32.832031 0 Z M 18.019531 -7.578125 C 19.875 -7.578125 21.414062 -8.207031 22.632812 -9.472656 C 23.863281 -10.75 24.476562 -12.488281 24.476562 -14.6875 C 24.476562 -16.890625 23.863281 -18.625 22.632812 -19.902344 C 21.414062 -21.167969 19.875 -21.800781 18.019531 -21.800781 C 16.125 -21.800781 14.570312 -21.167969 13.351562 -19.902344 C 12.121094 -18.625 11.507812 -16.890625 11.507812 -14.6875 C 11.507812 -12.488281 12.121094 -10.75 13.351562 -9.472656 C 14.570312 -8.207031 16.125 -7.578125 18.019531 -7.578125 Z M 18.019531 -5.527344 C 15.546875 -5.527344 13.496094 -6.371094 11.875 -8.054688 C 10.265625 -9.726562 9.460938 -11.9375 9.460938 -14.6875 C 9.460938 -17.4375 10.265625 -19.652344 11.875 -21.324219 C 13.496094 -23.007812 15.546875 -23.847656 18.019531 -23.847656 C 20.457031 -23.847656 22.488281 -23.007812 24.109375 -21.324219 C 25.71875 -19.652344 26.523438 -17.4375 26.523438 -14.6875 C 26.523438 -11.9375 25.71875 -9.726562 24.109375 -8.054688 C 22.488281 -6.371094 20.457031 -5.527344 18.019531 -5.527344 Z M 18.019531 -5.527344 "/></g></g></g><g fill="#ffffff" fill-opacity="1"><g transform="translate(338.862838, 53.306222)"><g><path d="M 33.730469 -14.578125 C 33.730469 -14.445312 33.675781 -13.652344 33.566406 -12.207031 L 33.492188 -11.261719 L 10.320312 -11.261719 L 10.320312 -12.285156 L 11.320312 -12.507812 C 11.664062 -10.945312 12.472656 -9.710938 13.75 -8.808594 C 15.066406 -7.878906 16.726562 -7.414062 18.730469 -7.414062 C 20.132812 -7.414062 21.363281 -7.617188 22.429688 -8.027344 C 23.484375 -8.433594 24.46875 -9.078125 25.390625 -9.964844 L 26.144531 -10.691406 L 32.007812 -4.332031 L 31.402344 -3.640625 C 28.433594 -0.238281 24.136719 1.460938 18.511719 1.460938 C 15.035156 1.460938 11.949219 0.777344 9.257812 -0.589844 C 6.535156 -1.96875 4.429688 -3.890625 2.945312 -6.351562 C 1.464844 -8.808594 0.722656 -11.585938 0.722656 -14.6875 C 0.722656 -17.75 1.453125 -20.519531 2.914062 -22.992188 C 4.375 -25.464844 6.378906 -27.394531 8.929688 -28.777344 C 11.46875 -30.152344 14.296875 -30.835938 17.417969 -30.835938 C 20.464844 -30.835938 23.226562 -30.179688 25.707031 -28.863281 C 28.210938 -27.53125 30.175781 -25.625 31.601562 -23.144531 C 33.023438 -20.675781 33.730469 -17.820312 33.730469 -14.578125 Z M 31.683594 -14.578125 C 31.683594 -17.453125 31.066406 -19.96875 29.828125 -22.125 C 28.597656 -24.265625 26.902344 -25.90625 24.746094 -27.054688 C 22.566406 -28.210938 20.125 -28.789062 17.417969 -28.789062 C 14.644531 -28.789062 12.140625 -28.183594 9.90625 -26.976562 C 7.6875 -25.773438 5.945312 -24.097656 4.675781 -21.949219 C 3.40625 -19.796875 2.769531 -17.378906 2.769531 -14.6875 C 2.769531 -11.964844 3.414062 -9.539062 4.699219 -7.410156 C 5.980469 -5.285156 7.808594 -3.617188 10.183594 -2.414062 C 12.585938 -1.195312 15.363281 -0.585938 18.511719 -0.585938 C 23.515625 -0.585938 27.300781 -2.054688 29.863281 -4.988281 L 30.632812 -4.3125 L 29.878906 -3.621094 L 25.347656 -8.535156 L 26.101562 -9.226562 L 26.8125 -8.492188 C 25.691406 -7.414062 24.476562 -6.621094 23.164062 -6.117188 C 21.863281 -5.613281 20.386719 -5.363281 18.730469 -5.363281 C 16.292969 -5.363281 14.238281 -5.957031 12.570312 -7.136719 C 10.859375 -8.34375 9.777344 -9.988281 9.320312 -12.066406 L 9.046875 -13.308594 L 32.542969 -13.308594 L 32.542969 -12.285156 L 31.523438 -12.363281 C 31.628906 -13.757812 31.683594 -14.496094 31.683594 -14.578125 Z M 17.472656 -22.347656 C 15.792969 -22.347656 14.390625 -21.878906 13.269531 -20.945312 C 12.15625 -20.019531 11.476562 -18.738281 11.222656 -17.097656 L 10.210938 -17.253906 L 10.210938 -18.277344 L 24.679688 -18.277344 L 24.679688 -17.253906 L 23.667969 -17.097656 C 23.417969 -18.703125 22.734375 -19.976562 21.617188 -20.925781 C 20.496094 -21.871094 19.117188 -22.347656 17.472656 -22.347656 Z M 17.472656 -24.394531 C 19.617188 -24.394531 21.4375 -23.757812 22.941406 -22.488281 C 24.445312 -21.210938 25.363281 -19.519531 25.691406 -17.414062 L 25.878906 -16.230469 L 9.019531 -16.230469 L 9.199219 -17.410156 C 9.53125 -19.558594 10.449219 -21.261719 11.957031 -22.519531 C 13.457031 -23.769531 15.296875 -24.394531 17.472656 -24.394531 Z M 17.472656 -24.394531 "/></g></g></g><g fill="#0f6766" fill-opacity="1"><g transform="translate(1.662071, 53.306222)"><g><path d="M 4.53125 -38.21875 L 13.375 -38.21875 L 13.375 0 L 4.53125 0 Z M 4.53125 -38.21875 "/></g></g></g><g fill="#0f6766" fill-opacity="1"><g transform="translate(19.569672, 53.306222)"><g><path d="M 21.796875 -29.8125 C 25.429688 -29.8125 28.367188 -28.71875 30.609375 -26.53125 C 32.847656 -24.351562 33.96875 -21.113281 33.96875 -16.8125 L 33.96875 0 L 25.453125 0 L 25.453125 -15.515625 C 25.453125 -17.835938 24.941406 -19.570312 23.921875 -20.71875 C 22.898438 -21.863281 21.425781 -22.4375 19.5 -22.4375 C 17.351562 -22.4375 15.640625 -21.769531 14.359375 -20.4375 C 13.085938 -19.113281 12.453125 -17.144531 12.453125 -14.53125 L 12.453125 0 L 3.9375 0 L 3.9375 -29.375 L 12.0625 -29.375 L 12.0625 -25.9375 C 13.195312 -27.175781 14.597656 -28.128906 16.265625 -28.796875 C 17.941406 -29.472656 19.785156 -29.8125 21.796875 -29.8125 Z M 21.796875 -29.8125 "/></g></g></g><g fill="#0f6766" fill-opacity="1"><g transform="translate(57.295753, 53.306222)"><g><path d="M 33.859375 -40.515625 L 33.859375 0 L 25.71875 0 L 25.71875 -3.390625 C 23.601562 -0.835938 20.546875 0.4375 16.546875 0.4375 C 13.773438 0.4375 11.269531 -0.179688 9.03125 -1.421875 C 6.789062 -2.660156 5.035156 -4.425781 3.765625 -6.71875 C 2.492188 -9.007812 1.859375 -11.664062 1.859375 -14.6875 C 1.859375 -17.707031 2.492188 -20.363281 3.765625 -22.65625 C 5.035156 -24.957031 6.789062 -26.722656 9.03125 -27.953125 C 11.269531 -29.191406 13.773438 -29.8125 16.546875 -29.8125 C 20.296875 -29.8125 23.226562 -28.628906 25.34375 -26.265625 L 25.34375 -40.515625 Z M 18.015625 -6.546875 C 20.171875 -6.546875 21.957031 -7.28125 23.375 -8.75 C 24.789062 -10.226562 25.5 -12.207031 25.5 -14.6875 C 25.5 -17.164062 24.789062 -19.140625 23.375 -20.609375 C 21.957031 -22.085938 20.171875 -22.828125 18.015625 -22.828125 C 15.835938 -22.828125 14.035156 -22.085938 12.609375 -20.609375 C 11.191406 -19.140625 10.484375 -17.164062 10.484375 -14.6875 C 10.484375 -12.207031 11.191406 -10.226562 12.609375 -8.75 C 14.035156 -7.28125 15.835938 -6.546875 18.015625 -6.546875 Z M 18.015625 -6.546875 "/></g></g></g><g fill="#0f6766" fill-opacity="1"><g transform="translate(95.076428, 53.306222)"><g><path d="M 33.53125 -29.375 L 33.53125 0 L 25.453125 0 L 25.453125 -3.5 C 24.316406 -2.21875 22.96875 -1.238281 21.40625 -0.5625 C 19.84375 0.101562 18.148438 0.4375 16.328125 0.4375 C 12.472656 0.4375 9.414062 -0.671875 7.15625 -2.890625 C 4.894531 -5.109375 3.765625 -8.40625 3.765625 -12.78125 L 3.765625 -29.375 L 12.28125 -29.375 L 12.28125 -14.03125 C 12.28125 -9.300781 14.265625 -6.9375 18.234375 -6.9375 C 20.273438 -6.9375 21.914062 -7.597656 23.15625 -8.921875 C 24.394531 -10.253906 25.015625 -12.234375 25.015625 -14.859375 L 25.015625 -29.375 Z M 33.53125 -29.375 "/></g></g></g><g fill="#0f6766" fill-opacity="1"><g transform="translate(132.584126, 53.306222)"><g><path d="M 13.8125 0.4375 C 11.375 0.4375 8.988281 0.140625 6.65625 -0.453125 C 4.332031 -1.054688 2.476562 -1.816406 1.09375 -2.734375 L 3.9375 -8.84375 C 5.238281 -8.007812 6.816406 -7.328125 8.671875 -6.796875 C 10.535156 -6.265625 12.359375 -6 14.140625 -6 C 17.742188 -6 19.546875 -6.894531 19.546875 -8.6875 C 19.546875 -9.519531 19.050781 -10.117188 18.0625 -10.484375 C 17.082031 -10.847656 15.578125 -11.15625 13.546875 -11.40625 C 11.140625 -11.769531 9.15625 -12.1875 7.59375 -12.65625 C 6.03125 -13.132812 4.671875 -13.972656 3.515625 -15.171875 C 2.367188 -16.378906 1.796875 -18.09375 1.796875 -20.3125 C 1.796875 -22.164062 2.332031 -23.8125 3.40625 -25.25 C 4.488281 -26.6875 6.054688 -27.804688 8.109375 -28.609375 C 10.160156 -29.410156 12.59375 -29.8125 15.40625 -29.8125 C 17.476562 -29.8125 19.539062 -29.582031 21.59375 -29.125 C 23.65625 -28.675781 25.359375 -28.050781 26.703125 -27.25 L 23.859375 -21.1875 C 21.273438 -22.644531 18.457031 -23.375 15.40625 -23.375 C 13.582031 -23.375 12.210938 -23.117188 11.296875 -22.609375 C 10.390625 -22.097656 9.9375 -21.441406 9.9375 -20.640625 C 9.9375 -19.734375 10.425781 -19.097656 11.40625 -18.734375 C 12.394531 -18.367188 13.960938 -18.019531 16.109375 -17.6875 C 18.515625 -17.289062 20.476562 -16.863281 22 -16.40625 C 23.53125 -15.957031 24.859375 -15.128906 25.984375 -13.921875 C 27.117188 -12.722656 27.6875 -11.050781 27.6875 -8.90625 C 27.6875 -7.082031 27.140625 -5.457031 26.046875 -4.03125 C 24.953125 -2.613281 23.359375 -1.515625 21.265625 -0.734375 C 19.171875 0.046875 16.6875 0.4375 13.8125 0.4375 Z M 13.8125 0.4375 "/></g></g></g><g fill="#0f6766" fill-opacity="1"><g transform="translate(161.574796, 53.306222)"><g><path d="M 22.875 -1.421875 C 22.039062 -0.796875 21.015625 -0.328125 19.796875 -0.015625 C 18.578125 0.285156 17.296875 0.4375 15.953125 0.4375 C 12.453125 0.4375 9.742188 -0.453125 7.828125 -2.234375 C 5.921875 -4.023438 4.96875 -6.648438 4.96875 -10.109375 L 4.96875 -22.171875 L 0.4375 -22.171875 L 0.4375 -28.71875 L 4.96875 -28.71875 L 4.96875 -35.875 L 13.484375 -35.875 L 13.484375 -28.71875 L 20.8125 -28.71875 L 20.8125 -22.171875 L 13.484375 -22.171875 L 13.484375 -10.21875 C 13.484375 -8.976562 13.800781 -8.019531 14.4375 -7.34375 C 15.082031 -6.664062 15.984375 -6.328125 17.140625 -6.328125 C 18.492188 -6.328125 19.644531 -6.691406 20.59375 -7.421875 Z M 22.875 -1.421875 "/></g></g></g><g fill="#0f6766" fill-opacity="1"><g transform="translate(185.324207, 53.306222)"><g><path d="M 12.0625 -25.5 C 13.082031 -26.914062 14.457031 -27.988281 16.1875 -28.71875 C 17.914062 -29.445312 19.910156 -29.8125 22.171875 -29.8125 L 22.171875 -21.953125 C 21.222656 -22.023438 20.585938 -22.0625 20.265625 -22.0625 C 17.816406 -22.0625 15.898438 -21.378906 14.515625 -20.015625 C 13.140625 -18.648438 12.453125 -16.601562 12.453125 -13.875 L 12.453125 0 L 3.9375 0 L 3.9375 -29.375 L 12.0625 -29.375 Z M 12.0625 -25.5 "/></g></g></g><g fill="#0f6766" fill-opacity="1"><g transform="translate(208.855236, 53.306222)"><g><path d="M 3.9375 -29.375 L 12.453125 -29.375 L 12.453125 0 L 3.9375 0 Z M 8.203125 -33.421875 C 6.847656 -33.421875 5.742188 -33.859375 4.890625 -34.734375 C 4.035156 -35.609375 3.609375 -36.71875 3.609375 -38.0625 C 3.609375 -39.375 4.035156 -40.46875 4.890625 -41.34375 C 5.742188 -42.21875 6.847656 -42.65625 8.203125 -42.65625 C 9.546875 -42.65625 10.644531 -42.21875 11.5 -41.34375 C 12.351562 -40.46875 12.78125 -39.375 12.78125 -38.0625 C 12.78125 -36.71875 12.351562 -35.609375 11.5 -34.734375 C 10.644531 -33.859375 9.546875 -33.421875 8.203125 -33.421875 Z M 8.203125 -33.421875 "/></g></g></g><g fill="#cfb074" fill-opacity="1"><g transform="translate(225.302413, 53.306222)"><g><path d="M 22.828125 0.65625 C 18.929688 0.65625 15.40625 -0.1875 12.25 -1.875 C 9.101562 -3.570312 6.628906 -5.921875 4.828125 -8.921875 C 3.023438 -11.929688 2.125 -15.328125 2.125 -19.109375 C 2.125 -22.898438 3.023438 -26.296875 4.828125 -29.296875 C 6.628906 -32.296875 9.101562 -34.640625 12.25 -36.328125 C 15.40625 -38.023438 18.945312 -38.875 22.875 -38.875 C 26.1875 -38.875 29.179688 -38.289062 31.859375 -37.125 C 34.535156 -35.96875 36.785156 -34.296875 38.609375 -32.109375 L 32.921875 -26.875 C 30.335938 -29.851562 27.132812 -31.34375 23.3125 -31.34375 C 20.945312 -31.34375 18.835938 -30.820312 16.984375 -29.78125 C 15.128906 -28.75 13.679688 -27.300781 12.640625 -25.4375 C 11.597656 -23.582031 11.078125 -21.472656 11.078125 -19.109375 C 11.078125 -16.742188 11.597656 -14.632812 12.640625 -12.78125 C 13.679688 -10.925781 15.128906 -9.476562 16.984375 -8.4375 C 18.835938 -7.394531 20.945312 -6.875 23.3125 -6.875 C 27.132812 -6.875 30.335938 -8.382812 32.921875 -11.40625 L 38.609375 -6.171875 C 36.785156 -3.953125 34.523438 -2.257812 31.828125 -1.09375 C 29.140625 0.0703125 26.140625 0.65625 22.828125 0.65625 Z M 22.828125 0.65625 "/></g></g></g><g fill="#cfb074" fill-opacity="1"><g transform="translate(265.32154, 53.306222)"><g><path d="M 17.90625 0.4375 C 14.8125 0.4375 12.035156 -0.207031 9.578125 -1.5 C 7.117188 -2.789062 5.195312 -4.582031 3.8125 -6.875 C 2.4375 -9.175781 1.75 -11.78125 1.75 -14.6875 C 1.75 -17.601562 2.4375 -20.207031 3.8125 -22.5 C 5.195312 -24.789062 7.117188 -26.582031 9.578125 -27.875 C 12.035156 -29.164062 14.8125 -29.8125 17.90625 -29.8125 C 21 -29.8125 23.765625 -29.164062 26.203125 -27.875 C 28.648438 -26.582031 30.5625 -24.789062 31.9375 -22.5 C 33.320312 -20.207031 34.015625 -17.601562 34.015625 -14.6875 C 34.015625 -11.78125 33.320312 -9.175781 31.9375 -6.875 C 30.5625 -4.582031 28.648438 -2.789062 26.203125 -1.5 C 23.765625 -0.207031 21 0.4375 17.90625 0.4375 Z M 17.90625 -6.546875 C 20.09375 -6.546875 21.882812 -7.28125 23.28125 -8.75 C 24.6875 -10.226562 25.390625 -12.207031 25.390625 -14.6875 C 25.390625 -17.164062 24.6875 -19.140625 23.28125 -20.609375 C 21.882812 -22.085938 20.09375 -22.828125 17.90625 -22.828125 C 15.726562 -22.828125 13.925781 -22.085938 12.5 -20.609375 C 11.082031 -19.140625 10.375 -17.164062 10.375 -14.6875 C 10.375 -12.207031 11.082031 -10.226562 12.5 -8.75 C 13.925781 -7.28125 15.726562 -6.546875 17.90625 -6.546875 Z M 17.90625 -6.546875 "/></g></g></g><g fill="#cfb074" fill-opacity="1"><g transform="translate(301.082163, 53.306222)"><g><path d="M 33.859375 -40.515625 L 33.859375 0 L 25.71875 0 L 25.71875 -3.390625 C 23.601562 -0.835938 20.546875 0.4375 16.546875 0.4375 C 13.773438 0.4375 11.269531 -0.179688 9.03125 -1.421875 C 6.789062 -2.660156 5.035156 -4.425781 3.765625 -6.71875 C 2.492188 -9.007812 1.859375 -11.664062 1.859375 -14.6875 C 1.859375 -17.707031 2.492188 -20.363281 3.765625 -22.65625 C 5.035156 -24.957031 6.789062 -26.722656 9.03125 -27.953125 C 11.269531 -29.191406 13.773438 -29.8125 16.546875 -29.8125 C 20.296875 -29.8125 23.226562 -28.628906 25.34375 -26.265625 L 25.34375 -40.515625 Z M 18.015625 -6.546875 C 20.171875 -6.546875 21.957031 -7.28125 23.375 -8.75 C 24.789062 -10.226562 25.5 -12.207031 25.5 -14.6875 C 25.5 -17.164062 24.789062 -19.140625 23.375 -20.609375 C 21.957031 -22.085938 20.171875 -22.828125 18.015625 -22.828125 C 15.835938 -22.828125 14.035156 -22.085938 12.609375 -20.609375 C 11.191406 -19.140625 10.484375 -17.164062 10.484375 -14.6875 C 10.484375 -12.207031 11.191406 -10.226562 12.609375 -8.75 C 14.035156 -7.28125 15.835938 -6.546875 18.015625 -6.546875 Z M 18.015625 -6.546875 "/></g></g></g><g fill="#cfb074" fill-opacity="1"><g transform="translate(338.862838, 53.306222)"><g><path d="M 32.71875 -14.578125 C 32.71875 -14.472656 32.660156 -13.707031 32.546875 -12.28125 L 10.328125 -12.28125 C 10.722656 -10.46875 11.664062 -9.03125 13.15625 -7.96875 C 14.65625 -6.914062 16.515625 -6.390625 18.734375 -6.390625 C 20.265625 -6.390625 21.617188 -6.613281 22.796875 -7.0625 C 23.984375 -7.519531 25.085938 -8.242188 26.109375 -9.234375 L 30.640625 -4.3125 C 27.867188 -1.144531 23.828125 0.4375 18.515625 0.4375 C 15.203125 0.4375 12.269531 -0.207031 9.71875 -1.5 C 7.164062 -2.789062 5.195312 -4.582031 3.8125 -6.875 C 2.4375 -9.175781 1.75 -11.78125 1.75 -14.6875 C 1.75 -17.5625 2.429688 -20.15625 3.796875 -22.46875 C 5.160156 -24.78125 7.035156 -26.582031 9.421875 -27.875 C 11.804688 -29.164062 14.472656 -29.8125 17.421875 -29.8125 C 20.296875 -29.8125 22.894531 -29.191406 25.21875 -27.953125 C 27.550781 -26.722656 29.382812 -24.953125 30.71875 -22.640625 C 32.050781 -20.328125 32.71875 -17.640625 32.71875 -14.578125 Z M 17.46875 -23.375 C 15.539062 -23.375 13.921875 -22.828125 12.609375 -21.734375 C 11.304688 -20.640625 10.507812 -19.144531 10.21875 -17.25 L 24.6875 -17.25 C 24.394531 -19.113281 23.59375 -20.597656 22.28125 -21.703125 C 20.96875 -22.816406 19.363281 -23.375 17.46875 -23.375 Z M 17.46875 -23.375 "/></g></g></g></g></g></svg>